<svg width="146" height="74" viewBox="0 0 146 74" fill="none" xmlns="http://www.w3.org/2000/svg">
<path d="M65.6086 9.22388H2.63792V29.0475H65.6086V9.22388Z" fill="#1A468B"/>
<path d="M2.63792 37.353V57.1766L19.0662 71.6722L65.5825 57.1766V37.353L19.0662 51.9269L2.63792 37.353Z" fill="#1A468B"/>
<path d="M111.289 8.93659C111.289 9.53731 111.498 10.0597 111.942 10.4776C112.36 10.8954 112.882 11.1305 113.509 11.1305C114.136 11.1305 114.632 10.9216 115.076 10.4776C115.494 10.0597 115.729 9.53731 115.729 8.93659C115.729 8.33588 115.52 7.81352 115.076 7.39563C114.658 6.97774 114.136 6.74268 113.509 6.74268C112.882 6.74268 112.386 6.95162 111.942 7.39563C111.524 7.81352 111.289 8.33588 111.289 8.93659Z" fill="#1A468B"/>
<path d="M108.259 11.1305C108.86 11.1305 109.382 10.9216 109.826 10.4776C110.244 10.0597 110.479 9.53731 110.479 8.93659C110.479 8.33588 110.27 7.81352 109.826 7.39563C109.409 6.97774 108.886 6.74268 108.259 6.74268C107.633 6.74268 107.136 6.95162 106.718 7.39563C106.301 7.83963 106.065 8.33588 106.065 8.93659C106.065 9.53731 106.274 10.0597 106.718 10.4776C107.136 10.8954 107.659 11.1305 108.259 11.1305Z" fill="#1A468B"/>
<path d="M81.3317 33.0437C82.063 32.7825 82.6376 32.3907 83.0816 31.9206C83.5256 31.4505 83.839 30.8497 84.0218 30.1707C84.2047 29.4916 84.3352 28.7603 84.3614 27.9506V24.7904C84.3875 24.7904 84.3875 16.7982 84.3875 16.7982H88.3052V22.6226C88.3052 24.1896 88.7231 25.3127 89.5589 25.9657C90.3946 26.6186 91.5438 26.9582 93.0064 26.9582H121.188V13.6379H116.826V23.7979H113.065V16.4587H108.703V23.7979H104.995V16.4587H100.633V23.7979H94.8347C93.9206 23.7979 93.3199 23.5889 93.0326 23.1449C92.7714 22.727 92.6147 22.1002 92.6147 21.2905V13.6379H79.9474V26.9843C79.9474 27.5589 79.8952 28.0551 79.7907 28.4208C79.6862 28.7864 79.5295 29.0737 79.3206 29.2827C79.1116 29.4916 78.8504 29.6222 78.5109 29.7006C78.1714 29.7789 77.8057 29.805 77.3617 29.805H76.8655V33.4354H78.4587C79.5818 33.4354 80.522 33.3048 81.2533 33.0437H81.3317Z" fill="#1A468B"/>
<path d="M110.897 6.61196C111.498 6.61196 112.02 6.40301 112.438 5.959C112.856 5.515 113.091 5.01875 113.091 4.41804C113.091 3.81732 112.882 3.29496 112.438 2.87707C112.02 2.45918 111.498 2.22412 110.897 2.22412C110.297 2.22412 109.774 2.43307 109.33 2.87707C108.912 3.29496 108.677 3.81732 108.677 4.41804C108.677 5.01875 108.886 5.54112 109.33 5.959C109.748 6.37689 110.27 6.61196 110.897 6.61196Z" fill="#1A468B"/>
<path d="M88.2791 29.0737C87.6784 29.0737 87.156 29.2827 86.7381 29.7267C86.3202 30.1446 86.0852 30.6669 86.0852 31.2938C86.0852 31.9206 86.2941 32.4168 86.7381 32.8609C87.156 33.2787 87.6784 33.5138 88.2791 33.5138C88.8798 33.5138 89.4021 33.3049 89.8462 32.8609C90.264 32.443 90.4991 31.9206 90.4991 31.2938C90.4991 30.6669 90.2902 30.1707 89.8462 29.7267C89.4283 29.3088 88.9059 29.0737 88.2791 29.0737Z" fill="#1A468B"/>
<path d="M95.0436 32.8086C95.4615 32.3907 95.6966 31.8684 95.6966 31.2415C95.6966 30.6147 95.4877 30.1184 95.0436 29.6744C94.6258 29.2565 94.1034 29.0215 93.4766 29.0215C92.8497 29.0215 92.3535 29.2304 91.9095 29.6744C91.4916 30.0923 91.2565 30.6147 91.2565 31.2415C91.2565 31.8684 91.4655 32.3646 91.9095 32.8086C92.3274 33.2265 92.8497 33.4616 93.4766 33.4616C94.0773 33.4616 94.5996 33.2526 95.0436 32.8086Z" fill="#1A468B"/>
<path d="M140.802 13.6379H136.441V23.7978H132.027C131.113 23.7978 130.512 23.5889 130.251 23.1448C129.99 22.727 129.833 22.1001 129.833 21.2905V10.3731H127.43L129.833 8.07472V6.87329H125.471V22.6225C125.471 24.1896 125.889 25.3126 126.725 25.9656C127.561 26.6186 128.71 26.9581 130.172 26.9581H140.802V13.6379Z" fill="#1A468B"/>
<path d="M141.168 6.74268C140.567 6.74268 140.045 6.95162 139.601 7.39563C139.157 7.83963 138.948 8.33588 138.948 8.93659C138.948 9.53731 139.157 10.0597 139.601 10.4776C140.019 10.8954 140.541 11.1305 141.168 11.1305C141.795 11.1305 142.291 10.9216 142.735 10.4776C143.153 10.0597 143.388 9.53731 143.388 8.93659C143.388 8.33588 143.179 7.81352 142.735 7.39563C142.291 6.97774 141.795 6.74268 141.168 6.74268Z" fill="#1A468B"/>
<path d="M135.971 11.1305C136.571 11.1305 137.094 10.9216 137.512 10.4776C137.93 10.0597 138.165 9.53731 138.165 8.93659C138.165 8.33588 137.956 7.81352 137.512 7.39563C137.068 6.97774 136.571 6.74268 135.971 6.74268C135.37 6.74268 134.848 6.95162 134.404 7.39563C133.96 7.83963 133.751 8.33588 133.751 8.93659C133.751 9.53731 133.96 10.0597 134.404 10.4776C134.821 10.8954 135.344 11.1305 135.971 11.1305Z" fill="#1A468B"/>
<path d="M86.947 39.5208V41.8975L83.4472 41.8453V52.4231H80.3653V41.8453L76.9438 41.8975V39.5208H86.947Z" fill="#1A468B"/>
<path d="M93.2676 50.8302H93.2415C92.5624 52.0055 91.4655 52.6063 89.9767 52.6063C88.488 52.6063 88.2268 52.3451 87.6 51.7966C86.9732 51.2481 86.6597 50.5168 86.6597 49.6288C86.6597 48.7408 87.0776 47.8005 87.9657 47.2782C88.8275 46.7558 90.0551 46.4685 91.6483 46.4685C93.2415 46.4685 92.5624 46.4685 93.0064 46.5207C93.0064 45.2671 92.3013 44.6402 90.8648 44.6402C89.4283 44.6402 88.8275 44.9014 87.8351 45.4499L87.7306 43.3343C88.697 42.8642 89.8984 42.6292 91.3088 42.6292C94.234 42.6292 95.6966 43.9612 95.6966 46.5991C95.6966 49.237 95.6966 47.1737 95.6966 47.7483C95.6966 48.3229 95.6966 48.7408 95.6966 49.0281C95.6966 50.5952 95.7488 51.7444 95.8272 52.4495H93.2937C93.2676 52.2928 93.2415 52.0578 93.2415 51.6921C93.2415 51.3265 93.2415 51.3003 93.2676 50.8563V50.8302ZM93.0587 48.0617C92.7714 48.0617 92.5102 48.0356 92.3013 48.0356C90.3946 48.0356 89.4544 48.5057 89.4544 49.4721C89.4544 50.4385 89.9245 50.6735 90.8909 50.6735C91.8572 50.6735 92.0662 50.4384 92.458 50.0206C92.8497 49.5766 93.0587 48.9497 93.0587 48.0878V48.0617Z" fill="#1A468B"/>
<path d="M103.219 43.0993L102.984 45.1626C102.122 44.7708 101.286 44.5619 100.502 44.5619C99.7188 44.5619 99.7449 44.6402 99.4837 44.7969C99.2225 44.9537 99.0919 45.1887 99.0919 45.4499C99.0919 45.7111 99.1964 45.92 99.4315 46.0767C99.6665 46.2334 100.137 46.3902 100.842 46.5991C101.782 46.8603 102.513 47.1998 102.984 47.6177C103.454 48.0356 103.715 48.6624 103.715 49.4982C103.715 50.334 103.349 51.2481 102.592 51.7966C101.834 52.3451 100.816 52.6063 99.536 52.6063C98.2562 52.6063 97.3159 52.4495 96.3495 52.11L96.5063 49.9161C97.4987 50.3862 98.4651 50.5952 99.4315 50.5952C100.398 50.5952 100.189 50.5168 100.45 50.3601C100.737 50.2034 100.868 49.9683 100.868 49.7071C100.868 49.446 100.737 49.2109 100.528 49.0542C100.293 48.8975 99.7971 48.7147 99.0397 48.4796C98.0472 48.1923 97.342 47.8528 96.9241 47.4349C96.5063 47.017 96.2973 46.4163 96.2973 45.6588C96.2973 44.9014 96.663 43.9873 97.3682 43.4388C98.0733 42.8903 99.0658 42.6292 100.293 42.6292C101.443 42.6292 102.383 42.7859 103.166 43.0993H103.219Z" fill="#1A468B"/>
<path d="M107.241 44.4573H107.267C108.05 43.2298 109.095 42.603 110.401 42.603C111.707 42.603 112.491 42.9686 113.091 43.6738C113.692 44.379 114.005 45.4237 114.005 46.7557V52.3972H111.132V47.8266C111.132 46.8341 111.028 46.1028 110.793 45.6327C110.558 45.1625 110.114 44.9275 109.461 44.9275C108.024 44.9275 107.293 45.9983 107.293 48.1922V52.3972H104.42V38.4241H107.293V42.2373C107.293 43.0209 107.293 43.7522 107.241 44.4312V44.4573Z" fill="#1A468B"/>
<path d="M124.087 48.4274H117.557C117.584 49.0803 117.871 49.5766 118.393 49.9683C118.916 50.3601 119.595 50.5429 120.43 50.5429C121.266 50.5429 122.415 50.3079 123.303 49.8116L123.356 52.0055C122.494 52.4234 121.397 52.6585 120.091 52.6585C118.785 52.6585 117.113 52.2145 116.147 51.3265C115.155 50.4385 114.658 49.2109 114.658 47.6177C114.658 46.0245 115.128 44.9275 116.043 44.0134C116.957 43.0993 118.184 42.6292 119.673 42.6292C121.162 42.6292 122.206 43.047 122.964 43.9089C123.721 44.7708 124.087 46.0506 124.087 47.7744C124.087 48.0617 124.087 48.2968 124.061 48.4535L124.087 48.4274ZM117.531 46.6252H121.475C121.475 45.2671 120.848 44.5619 119.595 44.5619C118.341 44.5619 118.576 44.7447 118.21 45.0842C117.819 45.4499 117.584 45.9461 117.531 46.5991V46.6252Z" fill="#1A468B"/>
<path d="M133.672 48.4274H127.143C127.169 49.0803 127.456 49.5766 127.979 49.9683C128.501 50.3601 129.18 50.5429 130.016 50.5429C130.852 50.5429 132.001 50.3079 132.889 49.8116L132.941 52.0055C132.079 52.4234 130.982 52.6585 129.676 52.6585C128.37 52.6585 126.699 52.2145 125.732 51.3265C124.74 50.4385 124.244 49.2109 124.244 47.6177C124.244 46.0245 124.714 44.9275 125.628 44.0134C126.542 43.0993 127.77 42.6292 129.258 42.6292C130.747 42.6292 131.792 43.047 132.549 43.9089C133.307 44.7708 133.672 46.0506 133.672 47.7744C133.672 48.0617 133.672 48.2968 133.646 48.4535L133.672 48.4274ZM127.143 46.6252H131.087C131.087 45.2671 130.46 44.5619 129.206 44.5619C127.952 44.5619 128.187 44.7447 127.822 45.0842C127.43 45.4499 127.195 45.9461 127.143 46.5991V46.6252Z" fill="#1A468B"/>
<path d="M137.042 44.8231H137.068C137.564 43.3605 138.504 42.6292 139.862 42.6292C141.22 42.6292 140.541 42.6814 140.776 42.7597L140.698 45.2148C140.411 45.1104 140.097 45.0581 139.706 45.0581C138.87 45.0581 138.243 45.3715 137.877 45.9723C137.486 46.573 137.303 47.5132 137.303 48.793V52.4234H134.377V45.7111C134.377 44.4835 134.351 43.5172 134.299 42.8642H136.963C137.015 43.5172 137.042 44.1701 137.042 44.8231Z" fill="#1A468B"/>
</svg>
